<svg width="64" height="64" viewBox="0 0 64 64" fill="none" xmlns="http://www.w3.org/2000/svg">
<rect x="20" y="20" width="24" height="8" fill="url(#paint0_linear_12_581)"/>
<path d="M20 28C13.3726 28 8 33.3726 8 40C8 46.6274 13.3726 52 20 52H28V44H20C17.7909 44 16 42.2091 16 40C16 37.7909 17.7909 36 20 36H36V56C36 58.2091 34.2091 60 32 60H20C8.95431 60 0 51.0457 0 40C0 28.9543 8.95431 20 20 20V28ZM53 4.04102C59.1595 4.54916 64 9.70933 64 16C64 19.0741 62.8424 21.8768 60.9414 24C62.8424 26.1232 64 28.9259 64 32C64 38.6274 58.6274 44 52 44H44C41.7909 44 40 42.2091 40 40C40 37.7909 41.7909 36 44 36H52C54.2091 36 56 34.2091 56 32C56 29.7909 54.2091 28 52 28H44V20H52C54.2091 20 56 18.2091 56 16C56 13.7909 54.2091 12 52 12H36V28C36 30.2091 34.2091 32 32 32C29.7909 32 28 30.2091 28 28V8C28 5.79086 29.7909 4 32 4H53V4.04102Z" fill="#ECECEC"/>
<defs>
<linearGradient id="paint0_linear_12_581" x1="20" y1="24" x2="44" y2="24" gradientUnits="userSpaceOnUse">
<stop stop-color="#ECECEC"/>
<stop offset="0.5" stop-color="#6A6A6A"/>
<stop offset="1" stop-color="#ECECEC"/>
</linearGradient>
</defs>
</svg>
